<?xml version="1.0" standalone="no"?>
<!DOCTYPE svg PUBLIC "-//W3C//DTD SVG 20010904//EN"
 "http://www.w3.org/TR/2001/REC-SVG-20010904/DTD/svg10.dtd">
<svg version="1.0" xmlns="http://www.w3.org/2000/svg"
 width="160.000000pt" height="160.000000pt" viewBox="0 0 160.000000 160.000000"
 preserveAspectRatio="xMidYMid meet">
<metadata>
Created by potrace 1.11, written by Peter Selinger 2001-2013
</metadata>
<g transform="translate(0.000000,160.000000) scale(0.100000,-0.100000)"
fill="#000000" stroke="none">
<path d="M885 1250 c-17 -5 -41 -19 -54 -31 -35 -33 -15 -43 63 -31 68 11 144
4 213 -19 71 -23 54 22 -20 56 -60 28 -156 39 -202 25z"/>
<path d="M580 1029 c-48 -40 -118 -76 -186 -94 -66 -17 -72 -21 -55 -38 22
-22 120 -10 189 24 66 32 120 94 108 124 -8 21 -16 19 -56 -16z"/>
<path d="M111 1014 c-37 -141 -40 -303 -6 -414 78 -255 267 -436 525 -501 110
-28 289 -23 390 11 248 84 431 285 485 533 21 94 16 276 -8 347 l-16 45 7 -50
c4 -27 6 -104 6 -170 -1 -110 -4 -126 -33 -199 -71 -176 -218 -344 -363 -415
-245 -121 -520 -86 -730 93 -154 131 -223 246 -249 411 -14 95 -14 256 0 304
6 19 9 37 6 39 -2 2 -8 -13 -14 -34z"/>
<path d="M920 1002 c-64 -64 -43 -202 34 -232 28 -10 69 11 84 45 28 60 7 166
-39 199 -33 22 -46 20 -79 -12z"/>
<path d="M587 813 c-4 -3 -48 -7 -98 -7 -75 -1 -94 -4 -102 -18 -9 -13 -7 -22
8 -37 67 -76 317 -29 274 51 -10 18 -68 26 -82 11z"/>
<path d="M1192 694 c-31 -116 -74 -138 -277 -139 -147 -2 -152 -2 -248 -38
-54 -21 -116 -37 -138 -37 -72 0 -135 40 -158 103 -6 15 -15 27 -21 27 -22 0
-21 -32 1 -77 47 -94 159 -118 319 -68 128 41 160 42 271 6 110 -36 167 -38
226 -12 83 38 127 162 86 241 -27 52 -46 50 -61 -6z"/>
</g>
</svg>
